# xmcd
#
# Track frame offsets:
#	150
#	20844
#	50645
#	70052
#	98730
#	134065
#	160395
#	184885
#	211667
#	239597
#	256417
#
# Disc length: 3679 seconds
# Revision: 0
# Processed by: cddbd v1.5.2PL0 Copyright (c) Steve Scherf et al.
# Submitted via: dBpowerAMP V12.0
#
DISCID=a40e5d0b
DTITLE=Lee Miles Stone - The Blues Lee's Way
DYEAR=1900
DGENRE=Blues
TTITLE0=Lee's Way
TTITLE1=My Heart's in Misery
TTITLE2=Don't Try to Pick my Brain
TTITLE3=Lee's Confession
TTITLE4=Father And Son Blues
TTITLE5=Now is The Time For Love
TTITLE6=Skin
TTITLE7=What is Life
TTITLE8=There Must be a Way
TTITLE9=Lee's Way (Finale)
TTITLE10=Skin (Short Version)
EXTD=
EXTT0=
EXTT1=
EXTT2=
EXTT3=
EXTT4=
EXTT5=
EXTT6=
EXTT7=
EXTT8=
EXTT9=
EXTT10=
PLAYORDER=
